<?xml version="1.0" encoding="utf-8"?>
<!-- Generator: Adobe Illustrator 21.0.2, SVG Export Plug-In . SVG Version: 6.00 Build 0)  -->
<svg version="1.1" id="Layer_1" xmlns="http://www.w3.org/2000/svg"  x="0px" y="0px"
	 viewBox="0 0 108 108" style="enable-background:new 0 0 108 108;" xml:space="preserve">
<style type="text/css">
	.st0{fill:#2196F3;}
	.st1{fill:url(#SVGID_1_);}
	.st2{fill:#FFFFFF;}
</style>
<path class="st0" d="M108,108H0V0h108V108z"/>
<linearGradient id="SVGID_1_" gradientUnits="userSpaceOnUse" x1="36.3867" y1="72.5379" x2="107.0946" y2="1.83" gradientTransform="matrix(1 0 0 -1 0 110)">
	<stop  offset="0" style="stop-color:#000000;stop-opacity:0.3"/>
	<stop  offset="1" style="stop-color:#000000;stop-opacity:0"/>
</linearGradient>
<path class="st1" d="M108,73.6L71.6,37.1c-0.7-0.9-1.7-1.5-2.9-1.5H39.3c-2,0-3.7,1.6-3.7,3.7v33L71.3,108H108V73.6z"/>
<path class="st2" d="M68.7,35.7H39.3c-2,0-3.7,1.7-3.7,3.7v33L43,65h25.7c2,0,3.7-1.7,3.7-3.7v-22C72.3,37.3,70.7,35.7,68.7,35.7z"
	/>
</svg>
